<svg width="513" height="622" viewBox="0 0 513 622" fill="none" xmlns="http://www.w3.org/2000/svg">
<path fill-rule="evenodd" clip-rule="evenodd" d="M157.127 427.401C139.485 417.095 116.875 401.174 105.86 384.332C102.652 379.426 98.6777 376.296 95.1775 371.195C64.5369 326.537 53.1602 276.318 61.8235 221.072C64.3036 205.257 72.2 182.476 79.2932 168.088L97.6588 138.815C108.759 124.774 107.667 126.315 119.505 114.007C126.747 106.477 136.727 98.8329 145.766 92.584C150.294 89.4531 155.442 87.4281 160.31 84.2843C177.306 73.3097 207.258 63.1102 230.954 60.4531C297.256 53.0175 356.693 74.6289 401.202 121.776L422.19 147.474C425.585 152.398 427.496 158.032 430.606 162.829C440.593 178.239 445.554 196.114 449.914 214.028C456.017 239.103 456.448 274.181 450.098 298.811C442.991 326.381 435.86 343.028 422.427 365.291L401.264 391.764C390.224 402.157 376.527 416.639 362.938 423.928C336.808 437.945 345.591 434.422 314.594 446.053C289.988 455.285 258.529 456.51 230.294 453.293L208.876 507.423L234.828 511.836C283.568 516.817 334.935 505.739 377.458 483.155C388.526 477.275 420.099 455.16 428.535 446.846C437.129 438.375 449.967 426.362 456.539 416.295L469.186 399.149C473.082 393.237 475.936 387.398 479.97 381.121C487.097 370.033 493.631 354.298 498.145 341.754C515.89 292.454 516.534 239.895 503.003 188.816C492.753 150.123 480.926 131.936 459.35 101.337C457.31 98.4425 455.486 94.934 453.349 92.4539C450.931 89.649 448.51 88.0085 445.839 85.0687C443.454 82.4456 442.623 79.8212 439.899 77.1101C434.703 71.9412 429.214 68.1161 424.089 63.1255C419.264 58.4256 412.985 54.9112 407.714 50.7074C398.678 43.5016 399.573 44.7856 390.442 39.177C384.313 35.4129 379.54 31.6277 372.706 28.1344C365.878 24.6447 358.841 22.8377 351.818 19.28C331.981 9.23064 304.197 4.69965 281.6 2.00263C245.994 -2.24578 209.833 3.74275 178.108 12.8317C169.891 15.1852 164.363 18.4721 157.071 21.4564C150.02 24.3423 142.825 26.5925 136.992 30.203C111.909 45.7297 106.857 48.8242 85.1938 66.77L70.6522 81.0068C61.9607 90.5132 52.1681 101.496 45.0128 112.998C29.6995 137.613 15.3162 163.794 8.76244 193.782C0.982098 229.383 -2.26256 261.859 4.8787 299.654C10.7101 330.521 18.1563 349.905 30.6811 377.119L47.1763 404.294C50.9146 410.103 55.9569 414.868 59.8652 420.404C64.6765 427.218 68.4113 429.655 73.6119 435.464C78.2719 440.671 84.543 444.078 88.4525 449.839C86.1143 459.197 67.1765 503.035 61.5045 518.663C56.8856 531.394 35.2379 578.805 34.0711 586.848C34.2564 587.032 34.5249 587.256 34.6609 587.363L49.3199 596.772C54.5064 599.617 60.5594 602.313 65.4997 605.37C71.9174 609.343 95.5046 618.946 97.9378 621.387C99.9008 619.268 100.858 615.831 103.466 610.247L171.746 436.933L157.127 427.401Z" fill="white"/>
<path fill-rule="evenodd" clip-rule="evenodd" d="M248.816 178.378C291.555 173.081 329.741 203.513 335.177 248.43C339.17 281.433 319.792 313.988 295.068 326.311C274.509 336.559 252.335 339.037 230.361 331.327C226.059 329.817 220.108 327.394 216.499 325.345C206.737 319.808 192.324 305.14 187.135 295.085C176.626 274.721 175.388 251.14 182.598 229.76C191.806 202.463 216.997 182.322 248.816 178.378ZM393.36 266.168C397.673 225.43 378.199 184.67 358.497 165.429C354.663 161.684 353.815 158.949 350.167 155.914C347.248 153.486 344.201 151.467 340.696 148.514C321.514 132.356 294.114 121.546 266.733 120.115C245.692 119.015 223.749 121.453 206.651 128.671C176.99 141.193 149.061 164.898 134.935 193.949C130.394 203.286 128.058 207.347 125.033 218.749C117.732 246.265 117.94 280.966 128.726 306.852C131.3 313.029 136.839 323.673 140.385 329.923C142.716 334.032 144.847 336.445 147.748 339.475C150.366 342.21 152.707 345.27 155.431 348.66C165.537 361.238 179.935 371.363 194.088 378.517C229.783 396.561 268.405 399.672 306.382 385.258C313.722 382.473 333.423 371.6 339.239 366.497C353.974 353.564 369.724 338.182 378.223 320.13C389.715 295.721 390.495 293.23 393.36 266.168Z" fill="white"/>
</svg>
