<svg width="1476" height="176" viewBox="0 0 1476 176" fill="none" xmlns="http://www.w3.org/2000/svg">
<path d="M236.776 127H220.008V68.9408H199.048V53.64H257.736V68.9408H236.776V127ZM327.96 127H311.192V97.5512H281.848V127H265.08V53.64H281.848V82.2504H311.192V53.64H327.96V127ZM390.812 127H340.508V53.64H390.812V68.9408H357.276V82.2504H386.62V97.5512H357.276V111.699H390.812V127ZM443.858 127H427.09V53.64H457.587C474.041 53.64 485.778 62.548 485.778 78.3728C485.778 94.1976 474.041 103.106 457.587 103.106H443.858V127ZM443.858 88.8528H454.443C464.399 88.8528 468.591 84.3464 468.591 78.3728C468.591 72.3992 464.399 67.8928 454.443 67.8928H443.858V88.8528ZM558.536 127H537.995L519.55 100.8H512.633V127H495.865V53.64H526.362C542.397 53.64 554.553 62.4432 554.553 77.22C554.553 88.4336 547.637 96.084 537.366 99.228L558.536 127ZM512.633 87.8048H523.218C533.174 87.8048 537.366 83.8224 537.366 77.8488C537.366 71.8752 533.174 67.8928 523.218 67.8928H512.633V87.8048ZM600.692 128.258C577.845 128.258 562.125 111.28 562.125 90.32C562.125 69.36 577.845 52.3824 600.692 52.3824C623.538 52.3824 639.258 69.36 639.258 90.32C639.258 111.28 623.538 128.258 600.692 128.258ZM600.692 112.538C613.477 112.538 622.071 102.582 622.071 90.32C622.071 78.0584 613.477 68.1024 600.692 68.1024C587.906 68.1024 579.312 78.0584 579.312 90.32C579.312 102.582 587.906 112.538 600.692 112.538ZM649.279 127V53.64H680.195C703.251 53.64 715.931 69.9888 715.931 90.32C715.931 110.651 703.251 127 680.195 127H649.279ZM666.047 111.699H678.099C692.247 111.699 698.744 101.953 698.744 90.32C698.744 78.6872 692.247 68.9408 678.099 68.9408H666.047V111.699ZM757.476 128.258C737.564 128.258 726.036 115.367 726.036 98.18V53.64H742.804V97.132C742.804 106.25 748.568 112.538 757.476 112.538C766.384 112.538 772.148 106.25 772.148 97.132V53.64H788.916V98.18C788.916 115.367 777.388 128.258 757.476 128.258ZM837.515 128.258C814.669 128.258 798.949 111.28 798.949 90.32C798.949 69.36 814.669 52.3824 837.515 52.3824C855.331 52.3824 868.955 62.2336 872.099 78.6872L857.741 82.8792C854.493 72.9232 846.213 68.1024 837.515 68.1024C824.729 68.1024 816.136 78.0584 816.136 90.32C816.136 102.582 824.729 112.538 837.515 112.538C846.213 112.538 854.493 107.717 857.741 97.7608L872.099 101.953C868.955 118.406 855.331 128.258 837.515 128.258ZM913.78 127H897.012V68.9408H876.052V53.64H934.74V68.9408H913.78V127ZM1031.16 127H1014.4V97.5512H985.052V127H968.284V53.64H985.052V82.2504H1014.4V53.64H1031.16V127ZM1060.48 127H1043.71V53.64H1060.48V127ZM1109.14 128.258C1086.29 128.258 1070.57 111.28 1070.57 90.32C1070.57 69.36 1086.29 52.3824 1109.14 52.3824C1125.69 52.3824 1137.01 60.5568 1141.94 72.3992L1127.16 77.9536C1123.6 72.0848 1117.2 68.1024 1109.14 68.1024C1096.35 68.1024 1087.76 78.0584 1087.76 90.32C1087.76 102.582 1096.35 112.538 1109.14 112.538C1120.03 112.538 1127.58 106.04 1127.58 99.0184H1109.14V84.7656H1144.77V94.512C1144.77 112.328 1131.77 128.258 1109.14 128.258ZM1217.74 127H1200.97V97.5512H1171.62V127H1154.86V53.64H1171.62V82.2504H1200.97V53.64H1217.74V127ZM1307.63 127H1290.86L1276.61 76.696L1262.35 127H1245.58L1222.95 53.64H1241.81L1255.02 103.944L1268.22 53.64H1284.99L1298.19 103.944L1311.4 53.64H1330.26L1307.63 127ZM1397.32 127H1379.51L1374.48 112.852H1346.7L1341.78 127H1323.96L1352.26 53.64H1369.03L1397.32 127ZM1369.55 98.8088L1360.64 73.552L1351.73 98.8088H1369.55ZM1430.84 127H1414.07V102.372L1385.78 53.64H1405.69L1422.46 86.652L1439.23 53.64H1459.14L1430.84 102.372V127Z" fill="black"/>
<path fill-rule="evenodd" clip-rule="evenodd" d="M44.2848 120.992C39.2835 118.071 32.8736 113.557 29.7511 108.783C28.8415 107.392 27.7149 106.504 26.7226 105.058C18.0363 92.3981 14.8111 78.1616 17.2671 62.4995C17.9701 58.0161 20.2087 51.558 22.2196 47.4791L27.426 39.1803C30.5728 35.1998 30.2633 35.6367 33.6192 32.1475C35.6723 30.013 38.5016 27.8458 41.0639 26.0743C42.3478 25.1868 43.8071 24.6127 45.187 23.7214C50.0053 20.6102 58.4965 17.7188 65.2142 16.9655C84.0103 14.8575 100.86 20.9842 113.478 34.3501L119.428 41.6353C120.39 43.0312 120.932 44.6282 121.814 45.9881C124.645 50.3569 126.052 55.4241 127.288 60.5026C129.018 67.6113 129.14 77.5555 127.34 84.5379C125.325 92.3539 123.303 97.0731 119.495 103.385L113.496 110.889C110.366 113.836 106.483 117.941 102.631 120.008C95.2228 123.981 97.7127 122.983 88.9253 126.28C81.9499 128.897 73.0316 129.244 65.027 128.332L58.9552 143.678L66.3125 144.929C80.1299 146.341 94.6919 143.2 106.747 136.798C109.885 135.131 118.835 128.862 121.227 126.505C123.663 124.103 127.302 120.698 129.166 117.844L132.751 112.983C133.855 111.307 134.664 109.652 135.808 107.872C137.828 104.729 139.681 100.268 140.961 96.712C145.991 82.7358 146.174 67.8356 142.338 53.3554C139.432 42.3863 136.079 37.2303 129.963 28.5556C129.384 27.7352 128.867 26.7405 128.261 26.0375C127.576 25.2423 126.89 24.7772 126.132 23.9438C125.456 23.2002 125.22 22.4562 124.448 21.6876C122.975 20.2223 121.419 19.1379 119.966 17.7231C118.599 16.3907 116.818 15.3944 115.324 14.2027C112.762 12.1599 113.016 12.5239 110.428 10.9339C108.69 9.86679 107.337 8.79371 105.4 7.8034C103.464 6.8141 101.469 6.30183 99.4782 5.29325C93.8545 2.44434 85.978 1.15984 79.5717 0.395252C69.4779 -0.809135 59.2265 0.888563 50.2326 3.46521C47.9033 4.1324 46.3362 5.06422 44.2689 5.91025C42.27 6.72836 40.2302 7.36628 38.5767 8.38983C31.4657 12.7915 30.0336 13.6688 23.8923 18.7563L19.7699 22.7923C17.3059 25.4873 14.5298 28.6008 12.5013 31.8616C8.16017 38.8396 4.08261 46.2617 2.22467 54.7633C0.0190105 64.8558 -0.900823 74.0624 1.12367 84.7769C2.77683 93.5274 4.88775 99.0228 8.43842 106.738L13.1147 114.441C14.1745 116.088 15.6039 117.439 16.7119 119.009C18.0758 120.94 19.1346 121.631 20.609 123.278C21.93 124.754 23.7078 125.72 24.8162 127.353C24.1533 130.006 18.7846 142.434 17.1766 146.864C15.8672 150.473 9.73024 163.914 9.39948 166.194C9.452 166.246 9.52812 166.31 9.56668 166.34L13.7224 169.008C15.1927 169.814 16.9087 170.578 18.3092 171.445C20.1286 172.571 26.8154 175.294 27.5052 175.986C28.0616 175.385 28.3329 174.41 29.0723 172.827L48.4292 123.695L44.2848 120.992Z" fill="url(#paint0_linear_43_760)"/>
<path fill-rule="evenodd" clip-rule="evenodd" d="M70.277 50.3961C82.393 48.8945 93.2185 57.5217 94.7597 70.2553C95.8916 79.6112 90.3982 88.8404 83.389 92.3339C77.5608 95.239 71.2746 95.9414 65.0452 93.7557C63.8256 93.3279 62.1385 92.6408 61.1153 92.06C58.3478 90.4903 54.2619 86.3319 52.7909 83.4817C49.8117 77.7084 49.4607 71.0236 51.5048 64.9624C54.115 57.2238 61.2566 51.5141 70.277 50.3961ZM111.254 75.2837C112.477 63.7348 106.956 52.1799 101.371 46.7251C100.284 45.6633 100.043 44.8881 99.0091 44.0278C98.1817 43.3393 97.3177 42.7669 96.3241 41.9298C90.8862 37.3493 83.1187 34.2846 75.3562 33.8791C69.3914 33.5672 63.1707 34.2584 58.3235 36.3045C49.9148 39.8545 41.9973 46.5745 37.9926 54.8104C36.7054 57.4572 36.0432 58.6084 35.1855 61.841C33.1158 69.6414 33.1747 79.4789 36.2323 86.8173C36.962 88.5685 38.5324 91.586 39.5377 93.3578C40.1985 94.5226 40.8026 95.2068 41.625 96.0658C42.3673 96.841 43.0308 97.7086 43.8031 98.6697C46.6679 102.235 50.7498 105.106 54.7619 107.134C64.8814 112.249 75.8302 113.131 86.5966 109.045C88.6772 108.255 94.2624 105.173 95.9112 103.726C100.089 100.06 104.553 95.6991 106.963 90.5817C110.221 83.6618 110.442 82.9558 111.254 75.2837Z" fill="url(#paint1_linear_43_760)"/>
<defs>
<linearGradient id="paint0_linear_43_760" x1="49" y1="2.4998e-06" x2="102.907" y2="161.732" gradientUnits="userSpaceOnUse">
<stop stop-color="#0804F6"/>
<stop offset="1" stop-color="#FE491F"/>
</linearGradient>
<linearGradient id="paint1_linear_43_760" x1="47.5" y1="-11.5" x2="135" y2="183.5" gradientUnits="userSpaceOnUse">
<stop stop-color="#FE491F"/>
<stop offset="0.913431" stop-color="#0804F6"/>
</linearGradient>
</defs>
</svg>
