<svg width="1476" height="176" viewBox="0 0 1476 176" fill="none" xmlns="http://www.w3.org/2000/svg">
<path d="M223.886 126V62.596H204.183V52.64H254.697V62.596H234.994V126H223.886ZM265.136 126V52.64H276.245V83.032H308.313V52.64H319.422V126H308.313V93.1976H276.245V126H265.136ZM332.062 126V52.64H378.908V62.596H343.171V83.9752H375.764V93.8264H343.171V116.044H378.908V126H332.062ZM456.797 126V52.64H481.635C487.224 52.64 491.835 53.6181 495.468 55.5744C499.101 57.4608 501.791 60.0808 503.538 63.4344C505.285 66.788 506.158 70.6307 506.158 74.9624C506.158 79.2941 505.285 83.1368 503.538 86.4904C501.791 89.844 499.101 92.4989 495.468 94.4552C491.835 96.3416 487.224 97.2848 481.635 97.2848H467.906V126H456.797ZM467.906 87.3288H481.111C485.862 87.3288 489.32 86.2109 491.486 83.9752C493.722 81.7395 494.839 78.7352 494.839 74.9624C494.839 71.2595 493.722 68.2901 491.486 66.0544C489.32 63.7488 485.862 62.596 481.111 62.596H467.906V87.3288ZM520.055 126V52.64H544.055C549.784 52.64 554.5 53.6181 558.203 55.5744C561.975 57.5307 564.77 60.1856 566.587 63.5392C568.473 66.8229 569.416 70.5608 569.416 74.7528C569.416 79.5037 568.193 83.7307 565.748 87.4336C563.373 91.0667 559.705 93.7216 554.744 95.3984L570.15 126H557.259L543.216 96.9704H531.164V126H520.055ZM531.164 86.9096H543.426C548.456 86.9096 552.124 85.7917 554.43 83.556C556.805 81.3203 557.993 78.3859 557.993 74.7528C557.993 71.0499 556.84 68.1155 554.535 65.9496C552.229 63.7139 548.491 62.596 543.321 62.596H531.164V86.9096ZM606.474 127.258C600.536 127.258 595.401 125.721 591.069 122.646C586.737 119.572 583.418 115.206 581.113 109.546C578.807 103.887 577.654 97.1451 577.654 89.32C577.654 81.4949 578.807 74.7528 581.113 69.0936C583.418 63.4344 586.737 59.0677 591.069 55.9936C595.401 52.9195 600.536 51.3824 606.474 51.3824C612.483 51.3824 617.618 52.9195 621.88 55.9936C626.212 59.0677 629.53 63.4344 631.836 69.0936C634.142 74.7528 635.294 81.4949 635.294 89.32C635.294 97.1451 634.142 103.887 631.836 109.546C629.53 115.206 626.212 119.572 621.88 122.646C617.618 125.721 612.483 127.258 606.474 127.258ZM606.474 116.778C611.714 116.778 615.941 114.437 619.155 109.756C622.369 105.005 623.976 98.1931 623.976 89.32C623.976 80.4469 622.369 73.6699 619.155 68.9888C615.941 64.2379 611.714 61.8624 606.474 61.8624C601.165 61.8624 596.903 64.2379 593.689 68.9888C590.545 73.6699 588.973 80.4469 588.973 89.32C588.973 98.1931 590.545 105.005 593.689 109.756C596.903 114.437 601.165 116.778 606.474 116.778ZM643.847 126V52.64H661.453C673.261 52.64 682.029 55.9237 687.758 62.4912C693.487 68.9888 696.352 77.9317 696.352 89.32C696.352 100.708 693.487 109.686 687.758 116.254C682.029 122.751 673.261 126 661.453 126H643.847ZM654.956 115.73H661.034C669.558 115.73 675.706 113.354 679.479 108.603C683.252 103.782 685.138 97.3547 685.138 89.32C685.138 81.2853 683.252 74.8925 679.479 70.1416C675.706 65.3208 669.558 62.9104 661.034 62.9104H654.956V115.73ZM731.943 127.258C726.982 127.258 722.546 126.245 718.633 124.218C714.791 122.192 711.751 119.118 709.516 114.996C707.28 110.804 706.162 105.529 706.162 99.1712V52.64H717.271V99.8C717.271 105.389 718.598 109.721 721.253 112.795C723.908 115.799 727.541 117.302 732.153 117.302C736.764 117.302 740.397 115.799 743.052 112.795C745.707 109.721 747.034 105.389 747.034 99.8V52.64H758.143V99.1712C758.143 105.529 756.99 110.804 754.685 114.996C752.379 119.118 749.235 122.192 745.253 124.218C741.34 126.245 736.903 127.258 731.943 127.258ZM795.201 127.258C789.053 127.258 783.813 125.686 779.481 122.542C775.219 119.398 771.936 114.996 769.63 109.337C767.394 103.608 766.276 96.9704 766.276 89.4248C766.276 81.8093 767.394 75.172 769.63 69.5128C771.936 63.7837 775.254 59.3472 779.586 56.2032C783.918 52.9893 789.123 51.3824 795.201 51.3824C803.096 51.3824 809.384 53.5483 814.065 57.88C818.746 62.1419 821.471 67.9408 822.24 75.2768H809.978C809.349 71.4341 807.777 68.2552 805.262 65.74C802.817 63.1549 799.428 61.8624 795.096 61.8624C789.577 61.8624 785.28 64.3077 782.206 69.1984C779.132 74.0891 777.595 80.8312 777.595 89.4248C777.595 97.9485 779.132 104.656 782.206 109.546C785.28 114.367 789.577 116.778 795.096 116.778C799.568 116.778 802.991 115.625 805.367 113.319C807.742 110.944 809.279 107.835 809.978 103.992H822.24C821.122 111.188 818.292 116.882 813.751 121.074C809.209 125.197 803.026 127.258 795.201 127.258ZM852.276 126V62.596H832.574V52.64H883.087V62.596H863.385V126H852.276ZM956.366 126V52.64H967.474V83.032H999.543V52.64H1010.65V126H999.543V93.1976H967.474V126H956.366ZM1024.86 126V116.149H1040.79V62.4912H1025.07V52.64H1067.62V62.4912H1051.9V116.149H1067.83V126H1024.86ZM1108.24 127.258C1102.79 127.258 1098.01 125.721 1093.89 122.646C1089.76 119.502 1086.55 115.101 1084.24 109.442C1081.94 103.782 1080.79 97.0752 1080.79 89.32C1080.79 81.7045 1081.94 75.0672 1084.24 69.408C1086.55 63.7488 1089.83 59.3472 1094.1 56.2032C1098.43 52.9893 1103.6 51.3824 1109.61 51.3824C1116.87 51.3824 1122.71 53.3736 1127.11 57.356C1131.58 61.3384 1134.3 66.9627 1135.28 74.2288H1123.23C1122.53 70.456 1120.99 67.4517 1118.62 65.216C1116.31 62.9803 1113.31 61.8624 1109.61 61.8624C1103.95 61.8624 1099.62 64.3077 1096.61 69.1984C1093.61 74.0891 1092.1 80.7963 1092.1 89.32C1092.1 98.1931 1093.68 105.005 1096.82 109.756C1100.03 114.437 1104.19 116.778 1109.29 116.778C1112.72 116.778 1115.54 115.765 1117.78 113.738C1120.02 111.712 1121.73 109.127 1122.92 105.983C1124.1 102.769 1124.84 99.3808 1125.12 95.8176H1109.71V86.5952H1136.33V126H1126.06L1125.33 116.149H1124.7C1123.3 119.363 1121.34 122.018 1118.83 124.114C1116.31 126.21 1112.79 127.258 1108.24 127.258ZM1144.88 126V52.64H1155.99V83.032H1188.06V52.64H1199.17V126H1188.06V93.1976H1155.99V126H1144.88ZM1213.59 126L1203.53 52.64H1214.32L1220.4 105.983L1229.42 52.64H1240.31L1249.33 105.983L1255.41 52.64H1266.2L1256.14 126H1243.25L1234.87 74.124L1226.48 126H1213.59ZM1269.2 126L1291.1 52.64H1304.31L1326.21 126H1314.16L1309.23 108.394H1286.18L1281.25 126H1269.2ZM1297.39 68.36L1288.69 99.4856H1306.72L1298.02 68.36H1297.39ZM1354.99 126V98.1232L1330.78 52.64H1343.46L1360.54 86.3856L1377.63 52.64H1390.31L1366.1 98.1232V126H1354.99Z" fill="white"/>
<path fill-rule="evenodd" clip-rule="evenodd" d="M44.2848 120.992C39.2835 118.071 32.8736 113.557 29.7511 108.783C28.8415 107.392 27.7149 106.504 26.7226 105.058C18.0363 92.3981 14.8111 78.1616 17.2671 62.4995C17.9701 58.0161 20.2087 51.558 22.2196 47.4791L27.426 39.1803C30.5728 35.1998 30.2633 35.6367 33.6192 32.1475C35.6723 30.013 38.5016 27.8458 41.0639 26.0743C42.3478 25.1868 43.8071 24.6127 45.187 23.7214C50.0053 20.6102 58.4965 17.7188 65.2142 16.9655C84.0103 14.8575 100.86 20.9842 113.478 34.3501L119.428 41.6353C120.39 43.0312 120.932 44.6282 121.814 45.9881C124.645 50.3569 126.052 55.4241 127.288 60.5026C129.018 67.6113 129.14 77.5555 127.34 84.5379C125.325 92.3539 123.303 97.0731 119.495 103.385L113.496 110.889C110.366 113.836 106.483 117.941 102.631 120.008C95.2228 123.981 97.7127 122.983 88.9253 126.28C81.9499 128.897 73.0316 129.244 65.027 128.332L58.9552 143.678L66.3125 144.929C80.1299 146.341 94.6919 143.2 106.747 136.798C109.885 135.131 118.835 128.862 121.227 126.505C123.663 124.103 127.302 120.698 129.166 117.844L132.751 112.983C133.855 111.307 134.664 109.652 135.808 107.872C137.828 104.729 139.681 100.268 140.961 96.712C145.991 82.7358 146.174 67.8356 142.338 53.3554C139.432 42.3863 136.079 37.2303 129.963 28.5556C129.384 27.7352 128.867 26.7405 128.261 26.0375C127.576 25.2423 126.89 24.7772 126.132 23.9438C125.456 23.2002 125.22 22.4562 124.448 21.6876C122.975 20.2223 121.419 19.1379 119.966 17.7231C118.599 16.3907 116.818 15.3944 115.324 14.2027C112.762 12.1599 113.016 12.5239 110.428 10.9339C108.69 9.86679 107.337 8.79371 105.4 7.8034C103.464 6.8141 101.469 6.30183 99.4782 5.29325C93.8545 2.44434 85.978 1.15984 79.5717 0.395252C69.4779 -0.809135 59.2265 0.888563 50.2326 3.46521C47.9033 4.1324 46.3362 5.06422 44.2689 5.91025C42.27 6.72836 40.2302 7.36628 38.5767 8.38983C31.4657 12.7915 30.0336 13.6688 23.8923 18.7563L19.7699 22.7923C17.3059 25.4873 14.5298 28.6008 12.5013 31.8616C8.16017 38.8396 4.08261 46.2617 2.22467 54.7633C0.0190105 64.8558 -0.900823 74.0624 1.12367 84.7769C2.77683 93.5274 4.88775 99.0228 8.43842 106.738L13.1147 114.441C14.1745 116.088 15.6039 117.439 16.7119 119.009C18.0758 120.94 19.1346 121.631 20.609 123.278C21.93 124.754 23.7078 125.72 24.8162 127.353C24.1533 130.006 18.7846 142.434 17.1766 146.864C15.8672 150.473 9.73024 163.914 9.39948 166.194C9.452 166.246 9.52812 166.31 9.56668 166.34L13.7224 169.008C15.1927 169.814 16.9087 170.578 18.3092 171.445C20.1286 172.571 26.8154 175.294 27.5052 175.986C28.0616 175.385 28.3329 174.41 29.0723 172.827L48.4292 123.695L44.2848 120.992Z" fill="white"/>
<path fill-rule="evenodd" clip-rule="evenodd" d="M70.2789 50.3961C82.395 48.8945 93.2205 57.5217 94.7616 70.2553C95.8935 79.6112 90.4002 88.8404 83.3909 92.3339C77.5628 95.239 71.2766 95.9414 65.0472 93.7557C63.8275 93.3279 62.1404 92.6408 61.1172 92.06C58.3498 90.4903 54.2639 86.3319 52.7929 83.4817C49.8137 77.7084 49.4626 71.0236 51.5067 64.9624C54.1169 57.2238 61.2585 51.5141 70.2789 50.3961ZM111.256 75.2837C112.479 63.7348 106.958 52.1799 101.373 46.7251C100.286 45.6633 100.045 44.8881 99.011 44.0278C98.1836 43.3393 97.3197 42.7669 96.326 41.9298C90.8882 37.3493 83.1207 34.2846 75.3581 33.8791C69.3934 33.5672 63.1726 34.2584 58.3255 36.3045C49.9167 39.8545 41.9993 46.5745 37.9945 54.8104C36.7073 57.4572 36.0451 58.6084 35.1875 61.841C33.1178 69.6414 33.1766 79.4789 36.2343 86.8173C36.964 88.5685 38.5344 91.586 39.5396 93.3578C40.2005 94.5226 40.8045 95.2068 41.6269 96.0658C42.3692 96.841 43.0328 97.7086 43.805 98.6697C46.6699 102.235 50.7518 105.106 54.7639 107.134C64.8833 112.249 75.8322 113.131 86.5985 109.045C88.6792 108.255 94.2643 105.173 95.9132 103.726C100.09 100.06 104.555 95.6991 106.965 90.5817C110.223 83.6618 110.444 82.9558 111.256 75.2837Z" fill="white"/>
</svg>
